<svg xmlns="http://www.w3.org/2000/svg" xmlns:xlink="http://www.w3.org/1999/xlink" viewBox="0 0 287.66 636.53"><defs><style>.cls-1{opacity:0.1;}.cls-2{opacity:0.4;}.cls-3{fill:#d8e0c8;}.cls-4{fill:#a38e71;}.cls-5,.cls-6{opacity:0.3;}.cls-5{fill:url(#linear-gradient);}.cls-6{fill:url(#linear-gradient-2);}.cls-10,.cls-11,.cls-12,.cls-7,.cls-8,.cls-9{opacity:0.8;}.cls-7{fill:url(#linear-gradient-3);}.cls-8{fill:url(#linear-gradient-4);}.cls-9{fill:url(#linear-gradient-5);}.cls-10{fill:url(#linear-gradient-6);}.cls-11{fill:url(#linear-gradient-7);}.cls-12{fill:url(#linear-gradient-8);}.cls-13{fill:#d0bc9b;}.cls-14{fill:#a38e70;}.cls-15{fill:#756651;}.cls-16{fill:#00b751;}.cls-17,.cls-18,.cls-19,.cls-20,.cls-21,.cls-22,.cls-23,.cls-24,.cls-25,.cls-26,.cls-27,.cls-28,.cls-29{opacity:0.9;}.cls-17{fill:url(#linear-gradient-9);}.cls-18{fill:url(#linear-gradient-10);}.cls-19{fill:url(#linear-gradient-11);}.cls-20{fill:url(#linear-gradient-12);}.cls-21{fill:url(#linear-gradient-13);}.cls-22{fill:url(#linear-gradient-14);}.cls-23{fill:url(#linear-gradient-15);}.cls-24{fill:url(#linear-gradient-16);}.cls-25{fill:url(#linear-gradient-17);}.cls-26{fill:url(#linear-gradient-18);}.cls-27{fill:url(#linear-gradient-19);}.cls-28{fill:url(#linear-gradient-20);}.cls-29{fill:url(#linear-gradient-21);}</style><linearGradient id="linear-gradient" x1="134.65" y1="154.47" x2="86.76" y2="-1.39" gradientUnits="userSpaceOnUse"><stop offset="0" stop-color="#fff"/><stop offset="0.22" stop-color="#fff" stop-opacity="0.76"/><stop offset="0.6" stop-color="#fff" stop-opacity="0.36"/><stop offset="0.87" stop-color="#fff" stop-opacity="0.1"/><stop offset="1" stop-color="#fff" stop-opacity="0"/></linearGradient><linearGradient id="linear-gradient-2" x1="166.53" y1="290.24" x2="171.94" y2="290.24" xlink:href="#linear-gradient"/><linearGradient id="linear-gradient-3" x1="188.31" y1="222.14" x2="196.05" y2="222.14" xlink:href="#linear-gradient"/><linearGradient id="linear-gradient-4" x1="134.53" y1="181.24" x2="139.94" y2="181.24" xlink:href="#linear-gradient"/><linearGradient id="linear-gradient-5" x1="130.18" y1="113.05" x2="137.59" y2="113.05" xlink:href="#linear-gradient"/><linearGradient id="linear-gradient-6" x1="169.53" y1="216.24" x2="174.94" y2="216.24" xlink:href="#linear-gradient"/><linearGradient id="linear-gradient-7" x1="180.53" y1="145.24" x2="185.94" y2="145.24" xlink:href="#linear-gradient"/><linearGradient id="linear-gradient-8" x1="60.11" y1="131.03" x2="68.48" y2="131.03" xlink:href="#linear-gradient"/><linearGradient id="linear-gradient-9" x1="247.18" y1="488.55" x2="253.37" y2="488.55" xlink:href="#linear-gradient"/><linearGradient id="linear-gradient-10" x1="216.53" y1="517.24" x2="221.94" y2="517.24" xlink:href="#linear-gradient"/><linearGradient id="linear-gradient-11" x1="55.53" y1="464.24" x2="60.94" y2="464.24" xlink:href="#linear-gradient"/><linearGradient id="linear-gradient-12" x1="176.87" y1="546.72" x2="184.53" y2="546.72" xlink:href="#linear-gradient"/><linearGradient id="linear-gradient-13" x1="235.53" y1="473.24" x2="240.94" y2="473.24" xlink:href="#linear-gradient"/><linearGradient id="linear-gradient-14" x1="225.53" y1="457.24" x2="230.94" y2="457.24" xlink:href="#linear-gradient"/><linearGradient id="linear-gradient-15" x1="38.53" y1="422.24" x2="43.94" y2="422.24" xlink:href="#linear-gradient"/><linearGradient id="linear-gradient-16" x1="95.95" y1="316.61" x2="104.41" y2="316.61" xlink:href="#linear-gradient"/><linearGradient id="linear-gradient-17" x1="102.53" y1="355.24" x2="107.94" y2="355.24" xlink:href="#linear-gradient"/><linearGradient id="linear-gradient-18" x1="78.53" y1="359.24" x2="83.94" y2="359.24" xlink:href="#linear-gradient"/><linearGradient id="linear-gradient-19" x1="138.77" y1="397.57" x2="147.38" y2="397.57" xlink:href="#linear-gradient"/><linearGradient id="linear-gradient-20" x1="232.53" y1="332.24" x2="237.94" y2="332.24" xlink:href="#linear-gradient"/><linearGradient id="linear-gradient-21" x1="229.53" y1="296.24" x2="234.94" y2="296.24" xlink:href="#linear-gradient"/></defs><title>IleRocher</title><g id="Calque_2" data-name="Calque 2"><g id="Calque_1-2" data-name="Calque 1"><g class="cls-1"><path class="cls-2" d="M44.16,443c1.92,34.56-1.1,120.46,12.66,107.46C76.33,532,62.74,532.38,76.2,515.52c6,40.82,14.47,78.63,24.34,66.45,16.8-20.73,19.5-30,19.5-30s.93-6.37,12.09-14.84a11.05,11.05,0,0,0,1.86-1.88c3,12.93,6.87,20.3,11.93,15.25,15.35-15.34,9.05-17.67,13.81-27.72.06-.08.36-.49.77-1.12,2.86,18.8,6.74,35.57,11.78,40,9.55,8.47,16.06-7,16.06-7s2.85,56.51,25,54c20.23-2.28,19.18-79.65,16.95-123.51,2.37-1.53,5.71-3.46,10.75-6.23,13.83-7.57,20-23.58,22.72-34.38,2.69-.57,21.94-25.29,22.56-28.31,7.14-34.25-16.11-37.95-21.13-30.8,0,0-8.52,18.41-65.11,4.72s-70.74,6.49-113.18,8.95S.45,399,.45,399-7.55,424,44.16,443Z"/><path d="M98,591.87a2.36,2.36,0,0,0-1.12,3.33,2.86,2.86,0,0,0,3.66,1,2.36,2.36,0,0,0,1.12-3.33A2.83,2.83,0,0,0,98,591.87Z"/><path d="M152,631.89a2.36,2.36,0,0,0-1.12,3.33,2.84,2.84,0,0,0,3.66,1,2.36,2.36,0,0,0,1.12-3.33A2.86,2.86,0,0,0,152,631.89Z"/><path d="M117,600.05a2.36,2.36,0,0,0-1.12,3.33,2.84,2.84,0,0,0,3.66,1,2.36,2.36,0,0,0,1.12-3.33A2.86,2.86,0,0,0,117,600.05Z"/></g><path class="cls-3" d="M18.1,419.8s15.72,14.5,72.31,29.54,70.74-7.13,113.18-9.84,72.31-25,72.31-25,53.44-38.1-72.31-49.92-124.18,7.88-138.33,9.19S40.11,389.5,18.1,390.81-7.3,407.65,18.1,419.8Z"/><path class="cls-4" d="M62.17,377.43s-13.3-164.79,15-168.29c22.14-2.73,25,59.39,25,59.39s6.51-17,16.06-7.69c12.94,12.61,18.25,114.39,18.25,114.39S105.17,394,62.17,377.43Z"/><path class="cls-4" d="M223.8,404.43S209.66,211.76,190,238.5c-16.81,22.8-19.5,33-19.5,33s-.93,7-12.1,16.31c-15.11,12.61-21.3,114.39-21.3,114.39S173.58,421,223.8,404.43Z"/><path class="cls-5" d="M161.14,340.53s44-57.47,54.66-89,5.18-63.82-29-100.25C171.56,135.06,159.45,80,162.45,36c0,0-66.51-15-99.51-36,0,0-56.64,88,26.81,155.82,49.45,40.19,56.7,56.24,59.7,82.71s-13.71,71-13.71,71Z"/><path class="cls-6" d="M171.62,289a2.71,2.71,0,1,1-3.66-1.12A2.7,2.7,0,0,1,171.62,289Z"/><path class="cls-7" d="M195.6,220.33a3.87,3.87,0,1,1-5.23-1.6A3.87,3.87,0,0,1,195.6,220.33Z"/><path class="cls-8" d="M139.62,180a2.71,2.71,0,1,1-3.66-1.12A2.7,2.7,0,0,1,139.62,180Z"/><path class="cls-9" d="M137.16,111.31a3.7,3.7,0,1,1-5-1.53A3.7,3.7,0,0,1,137.16,111.31Z"/><path class="cls-10" d="M174.62,215a2.71,2.71,0,1,1-3.66-1.12A2.7,2.7,0,0,1,174.62,215Z"/><path class="cls-11" d="M185.62,144a2.71,2.71,0,1,1-3.66-1.12A2.7,2.7,0,0,1,185.62,144Z"/><path class="cls-12" d="M68,129.06a4.19,4.19,0,1,1-5.66-1.73A4.2,4.2,0,0,1,68,129.06Z"/><path class="cls-3" d="M107.78,391.23s1.89-57,17-77.65.66-19.44,19.77-40.43c17.22-18.91,20.94,120.36,20.94,120.36S136.64,411.14,107.78,391.23Z"/><path class="cls-3" d="M194.78,391.23s2-57,18-77.65.7-19.44,20.9-40.43c18.21-18.91,22.14,120.36,22.14,120.36S225.29,411.14,194.78,391.23Z"/><path class="cls-13" d="M24.78,401.48S27.52,365,49.45,351.76s11.81-9.3,28.68-25.89,30.37,77.07,30.37,77.07S64,425.62,24.78,401.48Z"/><path class="cls-13" d="M230.5,386.48s-3.12-49.78-25.05-63-11.44,4-28.31-12.63-30.36,77.07-30.36,77.07S192.33,401,230.5,386.48Z"/><path class="cls-14" d="M163.26,419.73S154,354.16,138.78,359c-21.28,6.77-27.3,20.27-27.3,20.27s-8.42-6.31-20.8-2.85c-16.76,4.68-23.63,42.49-23.63,42.49S107.56,425.88,163.26,419.73Z"/><path class="cls-14" d="M147.05,415.73s14.07-76.85,29.91-72c22.16,6.77,24.64,21,24.64,21s25.58,8.88,38.46,12.34c17.45,4.69,25.12,29,25.12,29S212.36,431.26,147.05,415.73Z"/><path class="cls-15" d="M103.5,424.36S97.25,411.6,91.35,401.6c-6.27-10.62-16-14.67-22.07-17.55-9.08-4.32-10.5,40.74-10.5,40.74S82.55,431.39,103.5,424.36Z"/><path class="cls-15" d="M110.89,429.76s3-3.33,5.83-5.94c3-2.77,7.68-3.83,10.57-4.58,4.36-1.13,5,10.63,5,10.63S120.94,431.59,110.89,429.76Z"/><path class="cls-15" d="M191.5,425.36s-2.9-12.76-8.8-22.76c-6.27-10.62-16.24,4.53-22.28,1.65-9.08-4.33-13.64,21.54-13.64,21.54S170.55,432.39,191.5,425.36Z"/><path class="cls-16" d="M189.41,429.52s5.6-.4,12.07-15a97.44,97.44,0,0,0-10.18,9.35s3.15-9,1.95-14.18c0,0-4.87,10.83-5.42,13.25,0,0-1.2-11.92-3-14,0,0-.53,11.56-.37,13.34,0,0-6.24-9.5-8.59-9.61,0,0,3.34,10.15,5.93,12.85C186.42,430.31,189.41,429.52,189.41,429.52Z"/><path class="cls-16" d="M127.68,312s2.41-1,3.08-8.44a45.74,45.74,0,0,0-3.09,5.66s0-4.46-1.27-6.56c0,0-.53,5.52-.41,6.67,0,0-2.32-5.09-3.43-5.75,0,0,1.51,5.19,1.85,5.95,0,0-4.19-3.26-5.25-3,0,0,3,4,4.55,4.79C126.47,312.83,127.68,312,127.68,312Z"/><path class="cls-16" d="M199.25,324.34s3.2.54,8.81-6.75a56.41,56.41,0,0,0-7,3.85s3-4.63,3-7.68c0,0-4.2,5.41-4.84,6.69,0,0,1-6.85.24-8.27,0,0-1.87,6.41-2,7.43,0,0-2.21-6.18-3.51-6.56,0,0,.49,6.14,1.57,8C197.47,324.38,199.25,324.34,199.25,324.34Z"/><path class="cls-16" d="M59.41,426.52s5.6-.4,12.07-15a97.44,97.44,0,0,0-10.18,9.35s3.15-9,2-14.18c0,0-4.87,10.83-5.42,13.25,0,0-1.2-11.92-3-14,0,0-.53,11.56-.37,13.34,0,0-6.24-9.5-8.59-9.61,0,0,3.34,10.15,5.93,12.85C56.42,427.31,59.41,426.52,59.41,426.52Z"/><path class="cls-17" d="M253,487.1a3.1,3.1,0,1,1-4.19-1.28A3.1,3.1,0,0,1,253,487.1Z"/><path class="cls-18" d="M221.62,516a2.71,2.71,0,1,1-3.66-1.12A2.7,2.7,0,0,1,221.62,516Z"/><path class="cls-19" d="M60.62,463A2.71,2.71,0,1,1,57,461.85,2.7,2.7,0,0,1,60.62,463Z"/><path class="cls-1" d="M144.62,588a2.71,2.71,0,1,1-3.66-1.12A2.7,2.7,0,0,1,144.62,588Z"/><path class="cls-20" d="M184.08,544.92a3.83,3.83,0,1,1-5.18-1.58A3.83,3.83,0,0,1,184.08,544.92Z"/><path class="cls-21" d="M240.62,472a2.71,2.71,0,1,1-3.66-1.12A2.7,2.7,0,0,1,240.62,472Z"/><path class="cls-22" d="M230.62,456a2.71,2.71,0,1,1-3.66-1.12A2.7,2.7,0,0,1,230.62,456Z"/><path class="cls-23" d="M43.62,421A2.71,2.71,0,1,1,40,419.85,2.7,2.7,0,0,1,43.62,421Z"/><path class="cls-24" d="M103.91,314.62a4.23,4.23,0,1,1-5.71-1.74A4.23,4.23,0,0,1,103.91,314.62Z"/><path class="cls-25" d="M107.62,354a2.71,2.71,0,1,1-3.66-1.12A2.7,2.7,0,0,1,107.62,354Z"/><path class="cls-26" d="M83.62,358A2.71,2.71,0,1,1,80,356.85,2.7,2.7,0,0,1,83.62,358Z"/><path class="cls-27" d="M146.88,395.55a4.31,4.31,0,1,1-5.82-1.78A4.32,4.32,0,0,1,146.88,395.55Z"/><path class="cls-28" d="M237.62,331a2.71,2.71,0,1,1-3.66-1.12A2.7,2.7,0,0,1,237.62,331Z"/><path class="cls-29" d="M234.62,295a2.71,2.71,0,1,1-3.66-1.12A2.7,2.7,0,0,1,234.62,295Z"/></g></g></svg>